<?xml version="1.0" standalone="no"?><!DOCTYPE svg PUBLIC "-//W3C//DTD SVG 1.1//EN" "http://www.w3.org/Graphics/SVG/1.1/DTD/svg11.dtd"><svg t="1770694859476" class="icon" viewBox="0 0 1024 1024" version="1.1" xmlns="http://www.w3.org/2000/svg" p-id="1910" width="512" height="512" xmlns:xlink="http://www.w3.org/1999/xlink"><path d="M512 768a256 256 0 1 0-256-256H170.666667a341.333333 341.333333 0 1 1 682.666666 0 341.333333 341.333333 0 0 1-682.666666 0h85.333333a256 256 0 0 0 256 256z" fill="#000000" p-id="1911"></path><path d="M702.08 406.826667c5.717333 10.282667 0.597333 22.912-10.24 27.562666l-35.370667 15.317334c-10.794667 4.650667-23.210667-0.426667-29.525333-10.410667l-4.096-6.101333a136.021333 136.021333 0 0 0-91.733333-55.893334l-4.266667-0.938666a24.32 24.32 0 0 1-16.810667-17.408l-0.512-4.309334-0.597333-38.528c-0.170667-11.776 9.258667-21.589333 20.992-20.608a217.258667 217.258667 0 0 1 172.16 111.317334z" fill="#D31720" p-id="1912"></path><path d="M213.76 531.328L272.64 593.066667c-33.194667 31.701333-57.301333 61.013333-70.229333 84.906666-9.386667 17.408-10.752 26.837333-9.813334 28.416 4.010667 6.912 17.066667 9.813333 37.248 8.746667l11.648-0.981333c4.096-0.426667 8.448-1.024 12.970667-1.749334l14.208-2.56c2.474667-0.426667 4.992-0.981333 7.552-1.493333l15.957333-3.712c2.730667-0.682667 5.546667-1.365333 8.362667-2.133333l17.493333-4.821334 18.432-5.546666 19.328-6.4 20.053334-7.082667 20.821333-7.850667 21.461333-8.576 10.922667-4.608 22.272-9.728 22.698667-10.453333 11.52-5.461333 23.210666-11.562667 23.466667-12.288a1291.605333 1291.605333 0 0 0 70.528-40.704l22.4-14.250667 21.632-14.336 10.538667-7.210666 20.394666-14.421334 19.541334-14.421333 18.645333-14.336 8.96-7.125333 17.194667-14.08 16.213333-13.866667 15.146667-13.525333 14.037333-13.184 12.928-12.714667 6.016-6.186667 11.178667-11.946666 5.12-5.802667 9.301333-11.050667c2.858667-3.584 5.546667-7.04 7.978667-10.368l6.698666-9.6c10.965333-16.896 15.018667-29.696 11.050667-36.565333-0.64-1.152-6.997333-4.096-22.272-5.376-19.498667-1.578667-45.909333 1.066667-77.354667 8.021333l-12.032 2.816-20.437333-82.858666c100.864-24.832 175.146667-18.773333 205.994667 34.730666 40.021333 69.290667-31.616 174.293333-163.2 277.034667l-20.181334 15.36-10.410666 7.68-21.418667 15.317333c-10.965333 7.594667-22.186667 15.189333-33.706667 22.698667l-23.381333 14.976-24.064 14.805333-24.746667 14.592-25.045333 14.122667-24.832 13.482667-24.661333 12.757333c-8.192 4.138667-16.341333 8.149333-24.405334 12.032l-24.149333 11.306667c-7.978667 3.669333-15.914667 7.168-23.765333 10.581333l-23.466667 9.770667c-154.709333 62.549333-281.472 72.106667-321.493333 2.816-32.554667-56.448 4.608-129.024 86.442666-209.450667l8.618667-8.32z" fill="#000000" p-id="1913"></path></svg>